HIERARCHY
ROOT Joint1
{
	OFFSET 0.000000 0.000000 0.000000
	CHANNELS 6 Xposition Yposition Zposition Xrotation Yrotation Zrotation
	JOINT Joint2
	{
		OFFSET -0.000000 0.000000 1.456275
		CHANNELS 6 Xposition Yposition Zposition Xrotation Yrotation Zrotation
		JOINT Joint3
		{
			OFFSET -0.000000 0.000002 1.471446
			CHANNELS 6 Xposition Yposition Zposition Xrotation Yrotation Zrotation
			JOINT Joint4
			{
				OFFSET 0.625745 0.000000 0.917755
				CHANNELS 6 Xposition Yposition Zposition Xrotation Yrotation Zrotation
				JOINT Joint5
				{
					OFFSET -0.629534 0.000001 0.940221
					CHANNELS 6 Xposition Yposition Zposition Xrotation Yrotation Zrotation
					JOINT Joint6
					{
						OFFSET -0.000001 0.113772 1.960660
						CHANNELS 6 Xposition Yposition Zposition Xrotation Yrotation Zrotation
						JOINT Joint7
						{
							OFFSET -0.669733 -0.113771 0.388340
							CHANNELS 6 Xposition Yposition Zposition Xrotation Yrotation Zrotation
							End Site
							{
								OFFSET 0.005509 0.005509 0.438980
							}
						}
					}
				}
			}
		}
	}
}
MOTION
Frames: 14
Frame Time: 0.041667
0.000000 0.000000 0.000000 -0.000000 1.019410 -51.523648 -0.000000 0.000000 1.456275 0.000010 -84.315379 -0.000005 -0.000000 0.000002 1.471446 -0.000003 -1.133465 -85.675584 0.625745 0.000000 0.917755 -0.000000 71.717075 0.000003 -0.629534 0.000001 0.940221 -0.000000 1.709739 -152.650357 -0.000001 0.113772 1.960661 -88.303882 -171.046310 0.000001 -0.669733 -0.113770 0.388340 -0.490134 1.555815 -32.765107 
0.000000 0.000000 0.000000 -0.000000 1.019410 -51.451484 -0.000000 0.000000 1.456275 0.000004 -84.260294 0.000012 -0.000000 0.000002 1.471446 -0.000000 -1.133465 -85.555633 0.625745 0.000000 0.917755 -0.000003 71.805731 0.000002 -0.629534 0.000001 0.940221 0.000000 1.709737 -152.436572 -0.000001 0.113772 1.960660 -88.303882 -171.184936 0.000002 -0.669734 -0.113772 0.388340 -0.486060 1.556705 -32.530337 
0.000000 0.000000 0.000000 -0.000000 1.019410 -51.337672 -0.000000 0.000000 1.456275 -0.000030 -84.173421 0.000017 -0.000000 0.000002 1.471446 -0.000004 -1.133465 -85.366450 0.625745 0.000000 0.917755 -0.000002 71.945559 0.000002 -0.629534 0.000001 0.940221 0.000000 1.709735 -152.099393 -0.000001 0.113772 1.960660 -88.303882 -171.403570 -0.000004 -0.669733 -0.113771 0.388340 -0.479644 1.558144 -32.160065 
0.000000 0.000000 0.000000 -0.000000 1.019410 -51.187500 -0.000000 -0.000000 1.456275 -0.000011 -84.058790 -0.000000 -0.000000 0.000002 1.471446 -0.000003 -1.133465 -85.116820 0.625745 0.000000 0.917755 -0.000004 72.130076 0.000002 -0.629534 0.000001 0.940221 0.000001 1.709734 -151.654501 -0.000001 0.113772 1.960660 -88.303882 -171.692063 0.000001 -0.669733 -0.113771 0.388340 -0.471188 1.560111 -31.671492 
0.000000 0.000000 0.000000 -0.000000 1.019410 -51.006244 -0.000000 -0.000000 1.456275 -0.000008 -83.920424 -0.000002 -0.000000 0.000002 1.471446 -0.000005 -1.133465 -84.815520 0.625745 0.000000 0.917755 0.000000 72.352768 0.000002 -0.629534 0.000001 0.940221 -0.000001 1.709734 -151.117512 -0.000001 0.113772 1.960660 -88.303882 -172.040280 -0.000002 -0.669733 -0.113771 0.388340 -0.461010 1.562576 -31.081797 
0.000000 0.000000 0.000000 -0.000000 1.019410 -50.799190 -0.000000 0.000000 1.456275 0.000020 -83.762373 -0.000015 -0.000000 0.000002 1.471446 -0.000004 -1.133465 -84.471354 0.625745 0.000000 0.917755 -0.000006 72.607158 0.000002 -0.629533 0.000001 0.940221 -0.000001 1.709736 -150.504106 -0.000001 0.113772 1.960660 -88.303882 -172.438029 0.000001 -0.669733 -0.113771 0.388340 -0.449413 1.565523 -30.408183 
0.000000 0.000000 0.000000 -0.000000 1.019410 -50.571632 -0.000000 0.000000 1.456275 -0.000018 -83.588668 -0.000004 -0.000000 0.000002 1.471446 -0.000004 -1.133464 -84.093084 0.625745 0.000000 0.917755 0.000001 72.886752 0.000004 -0.629533 0.000001 0.940221 -0.000001 1.709736 -149.829939 -0.000001 0.113772 1.960660 -88.303882 -172.875189 0.000002 -0.669733 -0.113771 0.388340 -0.436711 1.568915 -29.667832 
0.000000 0.000000 0.000000 -0.000000 1.019410 -50.328836 -0.000000 0.000000 1.456275 0.000001 -83.403331 0.000018 -0.000000 0.000002 1.471446 -0.000009 -1.133466 -83.689502 0.625745 0.000000 0.917755 -0.000007 73.185053 0.000002 -0.629534 0.000001 0.940221 -0.000001 1.709738 -149.110666 -0.000001 0.113772 1.960660 -88.303882 -173.341609 -0.000003 -0.669733 -0.113771 0.388340 -0.423206 1.572717 -28.877948 
0.000000 0.000000 0.000000 -0.000000 1.019410 -50.076102 -0.000000 0.000000 1.456275 0.000008 -83.210412 -0.000018 -0.000000 0.000002 1.471446 -0.000005 -1.133465 -83.269397 0.625745 0.000000 0.917755 -0.000003 73.495568 -0.000002 -0.629534 0.000001 0.940221 0.000001 1.709731 -148.361927 -0.000001 0.113772 1.960660 -88.303882 -173.827126 -0.000001 -0.669733 -0.113771 0.388340 -0.409203 1.576871 -28.055714 
0.000000 0.000000 0.000000 -0.000000 1.019410 -49.816753 -0.000000 0.000000 1.456275 0.000005 -83.012439 -0.000007 -0.000000 0.000002 1.471446 -0.000003 -1.133465 -82.838290 0.625745 0.000000 0.917755 -0.000005 73.814216 0.000005 -0.629533 0.000001 0.940221 -0.000000 1.709737 -147.593585 -0.000001 0.113772 1.960660 -88.303882 -174.325347 -0.000000 -0.669733 -0.113771 0.388340 -0.394899 1.581344 -27.211948 
0.000000 0.000000 0.000000 -0.000000 1.019410 -49.546278 -0.000000 0.000000 1.456275 -0.000008 -82.805976 0.000005 -0.000000 0.000002 1.471446 -0.000005 -1.133466 -82.388679 0.625745 0.000000 0.917755 0.000000 74.146532 0.000003 -0.629534 0.000001 0.940221 -0.000001 1.709735 -146.792295 -0.000001 0.113772 1.960660 -88.303882 -174.844974 0.000001 -0.669733 -0.113771 0.388340 -0.380053 1.586232 -26.331978 
0.000000 0.000000 0.000000 -0.000000 1.019410 -49.258190 -0.000000 0.000000 1.456275 -0.000000 -82.586071 0.000002 -0.000000 0.000002 1.471446 -0.000004 -1.133465 -81.909814 0.625745 0.000000 0.917755 0.000000 74.500486 0.000007 -0.629534 0.000001 0.940222 -0.000001 1.709739 -145.938822 -0.000001 0.113772 1.960660 -88.303875 -175.398384 -0.000001 -0.669733 -0.113771 0.388340 -0.364325 1.591684 -25.394741 
0.000000 0.000000 0.000000 -0.000000 1.019410 -48.946037 -0.000000 0.000000 1.456275 0.000004 -82.347793 -0.000001 -0.000000 0.000002 1.471445 -0.000004 -1.133464 -81.390932 0.625745 0.000000 0.917755 -0.000007 74.884008 0.000003 -0.629534 0.000001 0.940221 -0.000000 1.709735 -145.014055 -0.000001 0.113772 1.960660 -88.303882 -175.998074 0.000000 -0.669733 -0.113771 0.388339 -0.347387 1.597886 -24.379168 
0.000000 0.000000 0.000000 -0.000000 1.019410 -48.603332 -0.000000 -0.000000 1.456275 -0.000019 -82.086190 0.000007 -0.000000 0.000002 1.471446 -0.000006 -1.133466 -80.821273 0.625745 0.000000 0.917755 -0.000007 75.305062 0.000005 -0.629534 0.000001 0.940221 -0.000000 1.709734 -143.998775 -0.000001 0.113772 1.960660 -88.303875 -176.656409 0.000001 -0.669733 -0.113771 0.388340 -0.328920 1.605040 -23.264224 
